<svg width="64" height="64" viewBox="0 0 64 64" fill="none" xmlns="http://www.w3.org/2000/svg">
<rect width="64" height="64" rx="13.95" fill="#1F2937"/>
<path d="M5.33398 31.9997C5.33398 24.9272 8.1435 18.1445 13.1445 13.1435C18.1454 8.14253 24.9282 5.33301 32.0006 5.33301L32.0006 7.99967C25.6354 7.99968 19.5309 10.5282 15.0301 15.0291C10.5292 19.53 8.00065 25.6345 8.00065 31.9997H5.33398Z" fill="#DB2777"/>
<path d="M21.334 31.9997C21.334 29.1707 22.4578 26.4576 24.4582 24.4572C26.4586 22.4568 29.1717 21.333 32.0006 21.333L32.0006 23.9997C29.8789 23.9997 27.8441 24.8425 26.3438 26.3428C24.8435 27.8431 24.0007 29.8779 24.0007 31.9997H21.334Z" fill="#4ADE80"/>
<path d="M26.666 32.0003C26.666 30.5858 27.2279 29.2293 28.2281 28.2291C29.2283 27.2289 30.5849 26.667 31.9993 26.667L31.9993 29.3337C31.2921 29.3337 30.6138 29.6146 30.1137 30.1147C29.6136 30.6148 29.3327 31.2931 29.3327 32.0003L26.666 32.0003Z" fill="#DB2777"/>
<path d="M10.666 32.0003C10.666 26.3424 12.9136 20.9162 16.9144 16.9154C20.9152 12.9146 26.3414 10.667 31.9993 10.667L31.9993 13.3337C27.0486 13.3337 22.3007 15.3003 18.8 18.801C15.2993 22.3017 13.3327 27.0496 13.3327 32.0003H10.666Z" fill="#4ADE80"/>
<path d="M32.0006 13.333C35.6926 13.333 39.3016 14.4278 42.3713 16.4789C45.441 18.53 47.8336 21.4454 49.2464 24.8562C50.6592 28.2671 51.0289 32.0204 50.3086 35.6413C49.5884 39.2623 47.8106 42.5884 45.2 45.199C42.5894 47.8096 39.2633 49.5874 35.6424 50.3077C32.0214 51.0279 28.2681 50.6583 24.8573 49.2454C21.4464 47.8326 18.531 45.4401 16.4799 42.3703C14.4288 39.3006 13.334 35.6916 13.334 31.9997L16.0015 31.9997C16.0015 35.1641 16.9398 38.2573 18.6978 40.8884C20.4558 43.5194 22.9546 45.5701 25.8781 46.781C28.8015 47.9919 32.0184 48.3088 35.122 47.6914C38.2255 47.0741 41.0763 45.5503 43.3138 43.3128C45.5513 41.0753 47.0751 38.2245 47.6924 35.1209C48.3098 32.0174 47.9929 28.8005 46.782 25.877C45.571 22.9536 43.5204 20.4548 40.8893 18.6968C38.2583 16.9388 35.165 16.0005 32.0006 16.0005V13.333Z" fill="#DB2777"/>
<path d="M32 24C33.5822 24 35.129 24.4692 36.4446 25.3482C37.7601 26.2273 38.7855 27.4767 39.391 28.9385C39.9965 30.4003 40.155 32.0089 39.8463 33.5607C39.5376 35.1126 38.7757 36.538 37.6569 37.6568C36.538 38.7757 35.1126 39.5376 33.5607 39.8463C32.0089 40.155 30.4004 39.9965 28.9385 39.391C27.4767 38.7855 26.2273 37.7602 25.3483 36.4446C24.4692 35.129 24 33.5823 24 32L26.6672 32C26.6672 33.0547 26.98 34.0858 27.5659 34.9628C28.1519 35.8397 28.9848 36.5232 29.9592 36.9269C30.9337 37.3305 32.0059 37.4361 33.0404 37.2303C34.0748 37.0246 35.0251 36.5167 35.7709 35.7709C36.5167 35.025 37.0246 34.0748 37.2303 33.0404C37.4361 32.0059 37.3305 30.9337 36.9269 29.9592C36.5232 28.9848 35.8397 28.1519 34.9627 27.5659C34.0858 26.98 33.0547 26.6672 32 26.6672V24Z" fill="#DB2777"/>
<path d="M32 8C36.7467 8 41.3869 9.40757 45.3337 12.0447C49.2804 14.6819 52.3566 18.4302 54.1731 22.8156C55.9896 27.201 56.4649 32.0266 55.5388 36.6821C54.6128 41.3377 52.327 45.6141 48.9706 48.9705C45.6141 52.327 41.3377 54.6128 36.6822 55.5388C32.0267 56.4649 27.2011 55.9896 22.8156 54.1731C18.4302 52.3566 14.6819 49.2805 12.0448 45.3337C9.4076 41.387 8.00001 36.7468 8 32.0001L10.6664 32.0001C10.6664 36.2194 11.9176 40.3441 14.2618 43.8523C16.606 47.3606 19.9378 50.095 23.836 51.7097C27.7342 53.3244 32.0237 53.7468 36.162 52.9237C40.3003 52.1005 44.1016 50.0687 47.0851 47.0851C50.0687 44.1015 52.1005 40.3003 52.9237 36.162C53.7468 32.0236 53.3244 27.7342 51.7097 23.836C50.095 19.9378 47.3606 16.6059 43.8523 14.2618C40.344 11.9176 36.2194 10.6664 32 10.6664V8Z" fill="#4ADE80"/>
<path d="M31.9993 18.667C34.6364 18.667 37.2143 19.449 39.4069 20.9141C41.5996 22.3791 43.3086 24.4615 44.3177 26.8979C45.3269 29.3342 45.5909 32.0151 45.0765 34.6015C44.562 37.1879 43.2921 39.5637 41.4274 41.4284C39.5628 43.2931 37.187 44.563 34.6006 45.0775C32.0142 45.5919 29.3333 45.3279 26.8969 44.3187C24.4606 43.3096 22.3782 41.6006 20.9131 39.408C19.448 37.2153 18.666 34.6374 18.666 32.0004L21.3327 32.0004C21.3327 34.11 21.9583 36.1723 23.1304 37.9264C24.3024 39.6805 25.9683 41.0477 27.9174 41.855C29.8665 42.6624 32.0112 42.8736 34.0803 42.462C36.1495 42.0504 38.0501 41.0345 39.5418 39.5428C41.0336 38.051 42.0495 36.1504 42.4611 34.0813C42.8726 32.0121 42.6614 29.8674 41.8541 27.9184C41.0467 25.9693 39.6795 24.3034 37.9254 23.1313C36.1713 21.9592 34.109 21.3337 31.9993 21.3337V18.667Z" fill="#4ADE80"/>
<path d="M32.0007 29.333C32.5281 29.333 33.0436 29.4894 33.4822 29.7824C33.9207 30.0754 34.2625 30.4919 34.4643 30.9792C34.6662 31.4665 34.719 32.0026 34.6161 32.5199C34.5132 33.0372 34.2592 33.5123 33.8863 33.8853C33.5133 34.2582 33.0382 34.5122 32.5209 34.6151C32.0036 34.718 31.4674 34.6652 30.9802 34.4634C30.4929 34.2615 30.0764 33.9197 29.7834 33.4812C29.4904 33.0427 29.334 32.5271 29.334 31.9997L32.0007 31.9997V29.333Z" fill="#4ADE80"/>
<path d="M16 32C16 27.7565 17.6857 23.6869 20.6863 20.6863C23.6869 17.6857 27.7565 16 32 16L32 18.6667C28.4638 18.6667 25.0724 20.0714 22.5719 22.5719C20.0714 25.0724 18.6667 28.4638 18.6667 32H16Z" fill="#DB2777"/>
</svg>
