<svg width="32" height="32" viewBox="0 0 32 32" fill="none" xmlns="http://www.w3.org/2000/svg">
<rect width="32" height="32" rx="6.98" fill="#1F2937"/>
<path d="M2.66602 16.0003C2.66602 12.4641 4.07077 9.07272 6.57125 6.57224C9.07174 4.07175 12.4631 2.667 15.9993 2.66699L15.9993 4.00033C12.8167 4.00033 9.7645 5.26461 7.51406 7.51505C5.26363 9.76548 3.99935 12.8177 3.99935 16.0003H2.66602Z" fill="#DB2777"/>
<path d="M10.666 16.0003C10.666 14.5858 11.2279 13.2293 12.2281 12.2291C13.2283 11.2289 14.5849 10.667 15.9993 10.667L15.9993 12.0003C14.9385 12.0003 13.9211 12.4218 13.1709 13.1719C12.4208 13.922 11.9993 14.9395 11.9993 16.0003H10.666Z" fill="#4ADE80"/>
<path d="M13.334 15.9997C13.334 15.2924 13.6149 14.6142 14.115 14.1141C14.6151 13.614 15.2934 13.333 16.0006 13.333L16.0006 14.6663C15.647 14.6663 15.3079 14.8068 15.0578 15.0569C14.8078 15.3069 14.6673 15.6461 14.6673 15.9997L13.334 15.9997Z" fill="#DB2777"/>
<path d="M5.33398 15.9997C5.33398 13.1707 6.45779 10.4576 8.45817 8.4572C10.4586 6.45682 13.1717 5.33301 16.0006 5.33301L16.0006 6.66634C13.5253 6.66634 11.1513 7.64967 9.40098 9.40001C7.65065 11.1504 6.66732 13.5243 6.66732 15.9997H5.33398Z" fill="#4ADE80"/>
<path d="M15.9993 6.66699C17.8453 6.66699 19.6498 7.21438 21.1847 8.23994C22.7195 9.2655 23.9158 10.7232 24.6222 12.4286C25.3286 14.134 25.5135 16.0107 25.1533 17.8212C24.7932 19.6316 23.9043 21.2947 22.599 22.6C21.2937 23.9053 19.6307 24.7942 17.8202 25.1543C16.0097 25.5144 14.1331 25.3296 12.4277 24.6232C10.7222 23.9168 9.26454 22.7205 8.23898 21.1857C7.21342 19.6508 6.66602 17.8463 6.66602 16.0003L7.99975 16.0003C7.99975 17.5825 8.46893 19.1292 9.34794 20.4447C10.2269 21.7602 11.4763 22.7855 12.938 23.391C14.3998 23.9965 16.0082 24.1549 17.56 23.8462C19.1118 23.5375 20.5372 22.7757 21.6559 21.6569C22.7747 20.5381 23.5366 19.1127 23.8452 17.561C24.1539 16.0092 23.9955 14.4007 23.39 12.939C22.7845 11.4773 21.7592 10.2279 20.4437 9.3489C19.1282 8.46989 17.5815 8.00073 15.9993 8.00073V6.66699Z" fill="#DB2777"/>
<path d="M16 12C16.7911 12 17.5645 12.2346 18.2223 12.6741C18.8801 13.1136 19.3928 13.7384 19.6955 14.4693C19.9983 15.2002 20.0775 16.0044 19.9231 16.7804C19.7688 17.5563 19.3878 18.269 18.8284 18.8284C18.269 19.3878 17.5563 19.7688 16.7804 19.9231C16.0044 20.0775 15.2002 19.9983 14.4693 19.6955C13.7384 19.3928 13.1137 18.8801 12.6741 18.2223C12.2346 17.5645 12 16.7911 12 16L13.3336 16C13.3336 16.5274 13.49 17.0429 13.783 17.4814C14.076 17.9199 14.4924 18.2616 14.9796 18.4634C15.4668 18.6652 16.003 18.718 16.5202 18.6152C17.0374 18.5123 17.5125 18.2583 17.8854 17.8854C18.2583 17.5125 18.5123 17.0374 18.6152 16.5202C18.718 16.003 18.6652 15.4668 18.4634 14.9796C18.2616 14.4924 17.9199 14.076 17.4814 13.783C17.0429 13.49 16.5274 13.3336 16 13.3336V12Z" fill="#DB2777"/>
<path d="M16 4C18.3734 4 20.6934 4.70379 22.6668 6.02236C24.6402 7.34094 26.1783 9.21508 27.0865 11.4078C27.9948 13.6005 28.2324 16.0133 27.7694 18.3411C27.3064 20.6688 26.1635 22.807 24.4853 24.4853C22.8071 26.1635 20.6689 27.3064 18.3411 27.7694C16.0133 28.2324 13.6005 27.9948 11.4078 27.0866C9.21511 26.1783 7.34096 24.6402 6.02238 22.6669C4.7038 20.6935 4.00001 18.3734 4 16L5.3332 16C5.33321 18.1097 5.95881 20.172 7.13089 21.9262C8.30298 23.6803 9.96891 25.0475 11.918 25.8548C13.8671 26.6622 16.0119 26.8734 18.081 26.4618C20.1502 26.0502 22.0508 25.0343 23.5426 23.5426C25.0343 22.0508 26.0503 20.1501 26.4618 18.081C26.8734 16.0118 26.6622 13.8671 25.8548 11.918C25.0475 9.96888 23.6803 8.30296 21.9261 7.13088C20.172 5.9588 18.1097 5.3332 16 5.3332V4Z" fill="#4ADE80"/>
<path d="M16.0006 9.33301C17.3192 9.33301 18.6081 9.724 19.7044 10.4565C20.8008 11.1891 21.6553 12.2303 22.1598 13.4484C22.6644 14.6666 22.7965 16.0071 22.5392 17.3003C22.282 18.5935 21.647 19.7814 20.7147 20.7137C19.7824 21.6461 18.5945 22.281 17.3013 22.5382C16.0081 22.7955 14.6676 22.6635 13.4494 22.1589C12.2313 21.6543 11.1901 20.7998 10.4575 19.7035C9.72498 18.6072 9.33399 17.3182 9.33398 15.9997L10.6673 15.9997C10.6673 17.0545 10.9801 18.0857 11.5662 18.9627C12.1522 19.8398 12.9851 20.5234 13.9597 20.927C14.9342 21.3307 16.0066 21.4363 17.0411 21.2305C18.0757 21.0247 19.026 20.5168 19.7719 19.7709C20.5178 19.025 21.0257 18.0747 21.2315 17.0401C21.4373 16.0056 21.3317 14.9332 20.928 13.9587C20.5243 12.9842 19.8407 12.1512 18.9637 11.5652C18.0866 10.9791 17.0555 10.6663 16.0006 10.6663V9.33301Z" fill="#4ADE80"/>
<path d="M15.9993 14.667C16.2631 14.667 16.5208 14.7452 16.7401 14.8917C16.9594 15.0382 17.1303 15.2464 17.2312 15.4901C17.3321 15.7337 17.3585 16.0018 17.3071 16.2604C17.2556 16.5191 17.1286 16.7567 16.9422 16.9431C16.7557 17.1296 16.5181 17.2566 16.2595 17.308C16.0008 17.3595 15.7327 17.3331 15.4891 17.2322C15.2455 17.1312 15.0372 16.9604 14.8907 16.7411C14.7442 16.5218 14.666 16.264 14.666 16.0003L15.9993 16.0003V14.667Z" fill="#4ADE80"/>
<path d="M8 16C8 13.8783 8.84285 11.8434 10.3431 10.3431C11.8434 8.84286 13.8783 8 16 8L16 9.33333C14.2319 9.33333 12.5362 10.0357 11.286 11.286C10.0357 12.5362 9.33333 14.2319 9.33333 16H8Z" fill="#DB2777"/>
</svg>
