<svg width="256" height="256" viewBox="0 0 256 256" fill="none" xmlns="http://www.w3.org/2000/svg">
<rect width="256" height="256" rx="55.81" fill="#1F2937"/>
<path d="M21.334 128C21.334 99.7099 32.572 72.5788 52.5759 52.575C72.5797 32.5711 99.7108 21.333 128.001 21.333L128.001 31.9997C102.54 31.9997 78.1218 42.114 60.1184 60.1174C42.1149 78.1209 32.0007 102.539 32.0006 128H21.334Z" fill="#DB2777"/>
<path d="M85.334 128C85.334 116.684 89.8292 105.831 97.8307 97.8298C105.832 89.8282 116.685 85.333 128.001 85.333L128.001 95.9997C119.514 95.9997 111.374 99.3711 105.373 105.372C99.3721 111.373 96.0006 119.513 96.0006 128H85.334Z" fill="#4ADE80"/>
<path d="M106.666 127.999C106.666 122.341 108.914 116.915 112.914 112.914C116.915 108.914 122.341 106.666 127.999 106.666L127.999 117.333C125.17 117.333 122.457 118.456 120.457 120.457C118.456 122.457 117.333 125.17 117.333 127.999L106.666 127.999Z" fill="#DB2777"/>
<path d="M42.666 127.999C42.666 105.368 51.6565 83.6627 67.6595 67.6596C83.6626 51.6565 105.367 42.666 127.999 42.666L127.999 53.3327C108.196 53.3327 89.2047 61.1993 75.202 75.2021C61.1993 89.2048 53.3327 108.197 53.3327 127.999H42.666Z" fill="#4ADE80"/>
<path d="M128.001 53.333C142.768 53.333 157.204 57.7121 169.483 65.9166C181.762 74.1211 191.332 85.7824 196.984 99.4259C202.635 113.069 204.114 128.082 201.233 142.566C198.352 157.05 191.24 170.355 180.798 180.797C170.356 191.239 157.051 198.351 142.568 201.232C128.084 204.113 113.071 202.634 99.4271 196.983C85.7835 191.331 74.1222 181.761 65.9177 169.482C57.7132 157.204 53.334 142.768 53.334 128L64.0038 128C64.0039 140.657 67.7573 153.03 74.7893 163.554C81.8214 174.079 91.8164 182.281 103.51 187.125C115.204 191.969 128.072 193.236 140.486 190.767C152.9 188.297 164.303 182.202 173.253 173.252C182.203 164.302 188.298 152.899 190.768 140.485C193.237 128.071 191.97 115.203 187.126 103.509C182.282 91.8152 174.08 81.8203 163.555 74.7883C153.031 67.7562 140.658 64.0029 128.001 64.0029V53.333Z" fill="#DB2777"/>
<path d="M128 96C134.329 96 140.516 97.8768 145.778 101.393C151.041 104.909 155.142 109.907 157.564 115.754C159.986 121.601 160.62 128.035 159.385 134.243C158.15 140.45 155.103 146.152 150.627 150.627C146.152 155.103 140.45 158.15 134.243 159.385C128.036 160.62 121.601 159.986 115.754 157.564C109.907 155.142 104.909 151.041 101.393 145.778C97.8768 140.516 96 134.329 96 128L106.669 128C106.669 132.219 107.92 136.343 110.264 139.851C112.608 143.359 115.939 146.093 119.837 147.707C123.735 149.322 128.024 149.744 132.162 148.921C136.299 148.098 140.1 146.067 143.083 143.083C146.067 140.1 148.098 136.299 148.921 132.161C149.744 128.024 149.322 123.735 147.707 119.837C146.093 115.939 143.359 112.608 139.851 110.264C136.343 107.92 132.219 106.669 128 106.669V96Z" fill="#DB2777"/>
<path d="M128 32C146.987 32 165.548 37.6303 181.335 48.1789C197.122 58.7275 209.426 73.7206 216.692 91.2623C223.958 108.804 225.86 128.106 222.155 146.729C218.451 165.351 209.308 182.456 195.882 195.882C182.456 209.308 165.351 218.451 146.729 222.155C128.107 225.86 108.804 223.958 91.2626 216.692C73.7209 209.426 58.7277 197.122 48.179 181.335C37.6304 165.548 32.0001 146.987 32 128L42.6656 128C42.6656 144.878 47.6705 161.376 57.0471 175.409C66.4238 189.443 79.7513 200.38 95.3441 206.839C110.937 213.297 128.095 214.987 144.648 211.695C161.201 208.402 176.406 200.275 188.341 188.34C200.275 176.406 208.402 161.201 211.695 144.648C214.987 128.095 213.297 110.937 206.839 95.3439C200.38 79.7511 189.442 66.4237 175.409 57.047C161.376 47.6704 144.878 42.6656 128 42.6656V32Z" fill="#4ADE80"/>
<path d="M127.999 74.666C138.548 74.666 148.859 77.794 157.63 83.6543C166.4 89.5146 173.236 97.8441 177.273 107.59C181.31 117.335 182.366 128.058 180.308 138.404C178.25 148.75 173.171 158.253 165.712 165.712C158.253 173.17 148.75 178.25 138.404 180.308C128.059 182.366 117.335 181.31 107.59 177.273C97.8443 173.236 89.5147 166.4 83.6544 157.63C77.794 148.859 74.666 138.548 74.666 127.999L85.3327 127.999C85.3327 136.438 87.8351 144.687 92.5234 151.704C97.2117 158.72 103.875 164.189 111.672 167.418C119.468 170.648 128.047 171.492 136.323 169.846C144.6 168.2 152.202 164.136 158.169 158.169C164.136 152.202 168.2 144.6 169.846 136.323C171.492 128.047 170.648 119.468 167.418 111.671C164.189 103.875 158.72 97.2116 151.704 92.5233C144.687 87.835 136.438 85.3327 127.999 85.3327V74.666Z" fill="#4ADE80"/>
<path d="M128.001 117.333C130.11 117.333 132.173 117.959 133.927 119.131C135.681 120.303 137.048 121.969 137.855 123.918C138.663 125.867 138.874 128.011 138.462 130.081C138.051 132.15 137.035 134.05 135.543 135.542C134.051 137.034 132.151 138.05 130.082 138.461C128.013 138.873 125.868 138.662 123.919 137.854C121.97 137.047 120.304 135.68 119.132 133.926C117.96 132.172 117.334 130.109 117.334 128L128.001 128V117.333Z" fill="#4ADE80"/>
<path d="M64 128C64 111.026 70.7428 94.7475 82.7451 82.7452C94.7475 70.7429 111.026 64 128 64L128 74.6667C113.855 74.6667 100.29 80.2857 90.2876 90.2876C80.2857 100.29 74.6667 113.855 74.6667 128H64Z" fill="#DB2777"/>
</svg>
