<svg width="1024" height="1025" viewBox="0 0 1024 1025" fill="none" xmlns="http://www.w3.org/2000/svg">
<rect y="0.299805" width="1024" height="1024" rx="223.23" fill="#1F2937"/>
<path d="M85.334 512.298C85.334 399.139 130.286 290.615 210.302 210.6C290.317 130.584 398.841 85.6319 512 85.6318L512 128.298C410.157 128.299 312.485 168.756 240.471 240.77C168.458 312.784 128.001 410.455 128.001 512.298L85.334 512.298Z" fill="#DB2777"/>
<path d="M341.334 512.298C341.334 467.035 359.315 423.625 391.321 391.619C423.327 359.613 466.737 341.632 512 341.632L512.001 384.298C478.053 384.299 445.496 397.784 421.491 421.789C397.486 445.794 384.001 478.351 384.001 512.298L341.334 512.298Z" fill="#4ADE80"/>
<path d="M426.666 512.299C426.666 489.667 435.656 467.962 451.66 451.959C467.663 435.956 489.367 426.966 511.999 426.966L511.999 469.632C500.683 469.632 489.831 474.128 481.829 482.129C473.828 490.131 469.333 500.983 469.333 512.299L426.666 512.299Z" fill="#DB2777"/>
<path d="M170.666 512.299C170.666 421.772 206.628 334.953 270.64 270.94C334.652 206.928 421.472 170.966 511.999 170.966L511.999 213.632C432.788 213.633 356.821 245.099 300.81 301.11C244.799 357.121 213.333 433.088 213.333 512.299L170.666 512.299Z" fill="#4ADE80"/>
<path d="M512.001 213.632C571.071 213.632 628.815 231.148 677.931 263.966C727.046 296.784 765.327 343.429 787.932 398.003C810.538 452.578 816.452 512.629 804.928 570.565C793.404 628.501 764.959 681.718 723.19 723.487C681.421 765.257 628.204 793.702 570.268 805.226C512.332 816.75 452.281 810.836 397.706 788.231C343.132 765.625 296.487 727.345 263.669 678.229C230.851 629.114 213.334 571.37 213.334 512.299L256.013 512.299C256.014 562.929 271.027 612.421 299.155 654.518C327.284 696.615 367.263 729.425 414.039 748.8C460.815 768.175 512.285 773.244 561.942 763.367C611.598 753.489 657.211 729.109 693.011 693.308C728.811 657.508 753.192 611.895 763.069 562.239C772.946 512.582 767.877 461.112 748.502 414.336C729.127 367.561 696.316 327.581 654.219 299.453C612.122 271.325 562.63 256.311 512.001 256.311L512.001 213.632Z" fill="#DB2777"/>
<path d="M512 384.3C537.316 384.3 562.063 391.807 583.113 405.872C604.162 419.936 620.568 439.927 630.257 463.316C639.945 486.705 642.479 512.442 637.54 537.271C632.602 562.101 620.411 584.908 602.51 602.809C584.609 620.71 561.801 632.901 536.972 637.84C512.142 642.779 486.406 640.244 463.017 630.556C439.628 620.868 419.637 604.462 405.572 583.413C391.507 562.364 384 537.616 384 512.3L426.675 512.3C426.675 529.176 431.679 545.672 441.055 559.704C450.431 573.735 463.757 584.672 479.348 591.13C494.939 597.588 512.095 599.277 528.646 595.985C545.198 592.693 560.401 584.566 572.334 572.633C584.267 560.701 592.393 545.497 595.685 528.946C598.978 512.394 597.288 495.238 590.83 479.647C584.372 464.056 573.435 450.73 559.404 441.355C545.372 431.979 528.876 426.975 512 426.975L512 384.3Z" fill="#DB2777"/>
<path d="M512 128.3C587.948 128.3 662.19 150.821 725.339 193.015C788.487 235.21 837.705 295.182 866.769 365.349C895.834 435.516 903.438 512.725 888.621 587.214C873.805 661.703 837.232 730.125 783.529 783.828C729.826 837.532 661.404 874.104 586.915 888.921C512.427 903.738 435.217 896.134 365.05 867.07C294.883 838.006 234.911 788.788 192.716 725.639C150.522 662.491 128 588.249 128 512.301L170.662 512.301C170.663 579.811 190.682 645.805 228.189 701.937C265.695 758.07 319.005 801.82 381.376 827.655C443.748 853.49 512.379 860.249 578.592 847.078C644.805 833.908 705.626 801.398 753.362 753.661C801.099 705.925 833.608 645.104 846.779 578.891C859.949 512.678 853.19 444.046 827.355 381.675C801.52 319.304 757.769 265.994 701.637 228.488C645.504 190.981 579.51 170.962 512 170.962L512 128.3Z" fill="#4ADE80"/>
<path d="M511.999 298.966C554.193 298.966 595.438 311.478 630.521 334.919C665.603 358.36 692.947 391.678 709.093 430.66C725.24 469.641 729.465 512.536 721.233 553.918C713.002 595.301 692.684 633.313 662.849 663.148C633.014 692.984 595.001 713.302 553.619 721.533C512.236 729.765 469.342 725.54 430.361 709.394C391.379 693.247 358.061 665.904 334.619 630.821C311.178 595.739 298.666 554.493 298.666 512.3L341.333 512.3C341.333 546.054 351.342 579.051 370.095 607.117C388.849 635.183 415.503 657.057 446.688 669.975C477.874 682.892 512.189 686.272 545.295 679.686C578.401 673.101 608.811 656.847 632.679 632.978C656.547 609.11 672.801 578.7 679.387 545.594C685.972 512.488 682.592 478.173 669.675 446.988C656.757 415.802 634.883 389.148 606.817 370.395C578.751 351.642 545.754 341.632 511.999 341.632L511.999 298.966Z" fill="#4ADE80"/>
<path d="M512.001 469.632C520.439 469.632 528.688 472.134 535.705 476.822C542.721 481.511 548.19 488.174 551.419 495.971C554.649 503.767 555.494 512.346 553.847 520.622C552.201 528.899 548.138 536.501 542.171 542.468C536.204 548.435 528.601 552.499 520.325 554.145C512.048 555.792 503.469 554.947 495.673 551.717C487.877 548.488 481.213 543.019 476.525 536.003C471.836 528.986 469.334 520.737 469.334 512.299L512.001 512.298L512.001 469.632Z" fill="#4ADE80"/>
<path d="M256 512.3C256 444.404 282.971 379.29 330.981 331.281C378.99 283.271 444.104 256.3 512 256.3L512 298.966C455.42 298.967 401.158 321.443 361.15 361.45C321.143 401.458 298.667 455.72 298.667 512.3L256 512.3Z" fill="#DB2777"/>
</svg>
