<svg width="1215" height="1215" xmlns="http://www.w3.org/2000/svg" xmlns:xlink="http://www.w3.org/1999/xlink" overflow="hidden"><defs><clipPath id="clip0"><rect x="609" y="137" width="1215" height="1215"/></clipPath></defs><g clip-path="url(#clip0)" transform="translate(-609 -137)"><path d="M1219 1350C884.868 1350 614 1079.13 614 745 614 410.868 884.868 140 1219 140 1553.13 140 1824 410.868 1824 745 1824 1079.13 1553.13 1350 1219 1350Z" fill="#1F2937" fill-rule="evenodd" fill-opacity="1"/><path d="M614 745.21C614.16 411.312 884.586 140.562 1218.48 140.001L1218.57 194.423C914.687 194.934 668.567 441.349 668.422 745.236Z" fill="#DB2777" fill-rule="evenodd" fill-opacity="1"/><path d="M740 745.772C740.126 482.884 953.565 269.874 1216.73 270 1217.78 270.001 1218.82 270.005 1219.87 270.012L1219.49 323.97C986.13 322.322 795.62 509.935 793.97 743.016 793.963 743.943 793.96 744.87 793.959 745.797Z" fill="#4ADE80" fill-rule="evenodd" fill-opacity="1"/><path d="M869 745.834C869.092 554.191 1024.75 398.909 1216.67 399.001 1218.02 399.001 1219.38 399.01 1220.74 399.026L1220.06 454.41C1058.75 452.446 926.377 581.403 924.409 742.444 924.396 743.583 924.388 744.722 924.388 745.861Z" fill="#DB2777" fill-rule="evenodd" fill-opacity="1"/><path d="M994 745.393C994.059 622.51 1093.72 522.941 1216.61 523 1217.24 523 1217.88 523.003 1218.52 523.009L1218.03 577.279C1125.12 576.435 1049.12 651.067 1048.28 743.973 1048.27 744.455 1048.27 744.937 1048.27 745.419Z" fill="#4ADE80" fill-rule="evenodd" fill-opacity="1"/><path d="M1124 745.956C1124.02 695.292 1165.23 654.182 1216.17 654.001L1216.36 706.954C1194.58 707.03 1176.96 724.478 1176.95 745.981Z" fill="#DB2777" fill-rule="evenodd" fill-opacity="1"/><path d="M614 752.42 614 737.314 614.444 720.15 616.161 728.466C620.336 738.115 630.109 744.886 641.5 744.886 656.688 744.886 669 732.849 669 718L669 759 614.17 759Z" fill="#1F2937" fill-rule="evenodd" fill-opacity="1"/><path d="M740 752.42 740 737.314 740.444 720.15 742.161 728.466C746.336 738.115 756.109 744.886 767.5 744.886 782.688 744.886 795 732.849 795 718L795 759 740.17 759Z" fill="#1F2937" fill-rule="evenodd" fill-opacity="1"/><path d="M869 752.42 869 737.314 869.46 720.15 871.239 728.466C875.566 738.115 885.695 744.886 897.5 744.886 913.24 744.886 926 732.849 926 718L926 759 869.176 759Z" fill="#1F2937" fill-rule="evenodd" fill-opacity="1"/><path d="M994 752.42 994 737.314 994.46 720.15 996.24 728.465C1000.57 738.115 1010.69 744.886 1022.5 744.886 1038.24 744.886 1051 732.849 1051 718L1051 759 994.177 759Z" fill="#1F2937" fill-rule="evenodd" fill-opacity="1"/><path d="M6.58011 0 21.6861 0 38.8503 0.452067 30.5346 2.20034C20.8848 6.45104 14.1139 16.4021 14.1139 28.0001 14.1139 43.4639 26.1512 56 40.9999 56L0 56 0 0.173295Z" fill="#1F2937" fill-rule="evenodd" fill-opacity="1" transform="matrix(-1 0 0 1 1232 140)"/><path d="M6.58011 0 21.6861 0 38.8503 0.452064 30.5346 2.20033C20.8848 6.451 14.1139 16.4019 14.1139 27.9999 14.1139 43.4637 26.1512 55.9997 40.9999 55.9997L0 55.9997 0 0.173294Z" fill="#1F2937" fill-rule="evenodd" fill-opacity="1" transform="matrix(-1 0 0 1 1232 269)"/><path d="M6.58011 0 21.6861 0 38.8503 0.46014 30.5346 2.23963C20.8848 6.56624 14.1139 16.695 14.1139 28.5001 14.1139 44.2401 26.1512 57.0001 40.9999 57.0001L0 57.0001 0 0.17639Z" fill="#1F2937" fill-rule="evenodd" fill-opacity="1" transform="matrix(-1 0 0 1 1232 398)"/><path d="M6.58011 0 21.6861 0 38.8503 0.452067 30.5346 2.20034C20.8848 6.45104 14.1139 16.4021 14.1139 28.0001 14.1139 43.4639 26.1512 56 40.9999 56L0 56 0 0.173295Z" fill="#1F2937" fill-rule="evenodd" fill-opacity="1" transform="matrix(-1 0 0 1 1232 523)"/><path d="M6.66404 0 21.9627 0 39.3458 0.442298 30.9241 2.15279C21.1512 6.31164 14.2939 16.0476 14.2939 27.3951 14.2939 42.5248 26.4848 54.79 41.5228 54.79L0 54.79 0 0.16955Z" fill="#1F2937" fill-rule="evenodd" fill-opacity="1" transform="matrix(-0.978709 0.205252 0.205252 0.978709 1222.86 649.937)"/><path d="M1121.94 746.745 1125.12 731.781 1129.16 714.869 1129.09 723.463C1131.12 733.887 1139.22 742.618 1150.32 744.978 1165.12 748.123 1179.65 738.749 1182.78 724.039L1174.14 764.655 1120.72 753.299Z" fill="#1F2937" fill-rule="evenodd" fill-opacity="1"/></g></svg>