<svg width="512" height="512" viewBox="0 0 512 512" fill="none" xmlns="http://www.w3.org/2000/svg">
<rect width="512" height="512" rx="111.62" fill="#1F2937"/>
<path d="M42.666 256.001C42.666 199.422 65.1421 145.16 105.15 105.152C145.158 65.1442 199.42 42.668 255.999 42.668L255.999 64.0013C205.078 64.0013 156.242 84.2299 120.235 120.237C84.2278 156.244 63.9993 205.08 63.9993 256.001H42.666Z" fill="#DB2777"/>
<path d="M170.666 256.001C170.666 233.369 179.656 211.665 195.66 195.662C211.663 179.658 233.367 170.668 255.999 170.668L255.999 192.001C239.025 192.001 222.747 198.744 210.744 210.746C198.742 222.749 191.999 239.027 191.999 256.001H170.666Z" fill="#4ADE80"/>
<path d="M213.334 255.999C213.334 244.683 217.829 233.83 225.831 225.829C233.832 217.827 244.685 213.332 256.001 213.332L256.001 234.665C250.343 234.665 244.916 236.913 240.916 240.914C236.915 244.915 234.667 250.341 234.667 255.999L213.334 255.999Z" fill="#DB2777"/>
<path d="M85.334 255.999C85.334 210.735 103.315 167.325 135.321 135.319C167.327 103.313 210.737 85.3321 256 85.332L256 106.665C216.395 106.665 178.411 122.399 150.406 150.404C122.401 178.41 106.667 216.393 106.667 255.999H85.334Z" fill="#4ADE80"/>
<path d="M255.999 106.668C285.535 106.668 314.407 115.426 338.964 131.835C363.522 148.244 382.663 171.567 393.965 198.854C405.268 226.141 408.225 256.167 402.463 285.135C396.701 314.102 382.479 340.711 361.594 361.596C340.709 382.48 314.101 396.703 285.133 402.465C256.165 408.227 226.139 405.27 198.852 393.967C171.565 382.665 148.242 363.524 131.833 338.967C115.424 314.409 106.666 285.537 106.666 256.002L128.006 256.002C128.006 281.316 135.513 306.063 149.577 327.111C163.641 348.159 183.631 364.565 207.019 374.252C230.406 383.939 256.142 386.474 280.97 381.535C305.798 376.597 328.604 364.406 346.505 346.506C364.405 328.606 376.595 305.8 381.534 280.971C386.472 256.143 383.937 230.408 374.25 207.02C364.562 183.632 348.157 163.643 327.109 149.578C306.06 135.514 281.314 128.008 255.999 128.008V106.668Z" fill="#DB2777"/>
<path d="M256 192C268.658 192 281.032 195.754 291.556 202.786C302.081 209.818 310.284 219.814 315.128 231.508C319.972 243.203 321.24 256.071 318.77 268.486C316.301 280.9 310.205 292.304 301.255 301.255C292.304 310.205 280.901 316.301 268.486 318.77C256.071 321.24 243.203 319.972 231.508 315.128C219.814 310.284 209.818 302.081 202.786 291.557C195.754 281.032 192 268.658 192 256L213.338 256C213.338 264.438 215.84 272.686 220.528 279.702C225.215 286.718 231.878 292.186 239.674 295.415C247.469 298.644 256.047 299.489 264.323 297.843C272.599 296.196 280.2 292.133 286.167 286.167C292.133 280.2 296.197 272.599 297.843 264.323C299.489 256.047 298.644 247.469 295.415 239.674C292.186 231.878 286.718 225.215 279.702 220.527C272.686 215.84 264.438 213.338 256 213.338V192Z" fill="#DB2777"/>
<path d="M256 64C293.974 64 331.095 75.2606 362.669 96.3578C394.244 117.455 418.853 147.441 433.385 182.525C447.917 217.608 451.719 256.213 444.311 293.457C436.902 330.701 418.616 364.913 391.765 391.764C364.913 418.616 330.702 436.902 293.458 444.311C256.213 451.719 217.609 447.917 182.525 433.385C147.442 418.853 117.455 394.244 96.3581 362.67C75.2608 331.096 64.0001 293.974 64 256.001L85.3312 256C85.3313 289.756 95.3409 322.753 114.094 350.819C132.848 378.885 159.503 400.76 190.688 413.677C221.874 426.595 256.19 429.975 289.296 423.389C322.403 416.804 352.813 400.549 376.681 376.681C400.55 352.812 416.804 322.402 423.389 289.296C429.975 256.189 426.595 221.873 413.677 190.688C400.76 159.502 378.885 132.847 350.818 114.094C322.752 95.3407 289.755 85.3312 256 85.3312V64Z" fill="#4ADE80"/>
<path d="M256.001 149.332C277.097 149.332 297.72 155.588 315.261 167.309C332.803 179.029 346.474 195.688 354.548 215.179C362.621 234.67 364.733 256.117 360.618 276.808C356.502 297.499 346.343 316.506 331.425 331.423C316.508 346.341 297.502 356.5 276.81 360.616C256.119 364.731 234.672 362.619 215.181 354.546C195.69 346.473 179.031 332.801 167.311 315.26C155.59 297.719 149.334 277.096 149.334 255.999L170.667 255.999C170.667 272.876 175.672 289.375 185.049 303.408C194.425 317.44 207.753 328.378 223.345 334.836C238.938 341.295 256.095 342.985 272.648 339.692C289.202 336.4 304.406 328.272 316.34 316.338C328.275 304.404 336.402 289.199 339.694 272.646C342.987 256.093 341.297 238.936 334.838 223.343C328.38 207.75 317.442 194.423 303.409 185.047C289.376 175.67 272.878 170.665 256.001 170.665V149.332Z" fill="#4ADE80"/>
<path d="M255.999 234.668C260.219 234.668 264.343 235.919 267.852 238.263C271.36 240.607 274.094 243.939 275.709 247.837C277.323 251.736 277.746 256.025 276.923 260.163C276.1 264.301 274.068 268.103 271.084 271.086C268.101 274.07 264.3 276.102 260.161 276.925C256.023 277.748 251.734 277.325 247.835 275.711C243.937 274.096 240.606 271.362 238.261 267.854C235.917 264.345 234.666 260.221 234.666 256.001L255.999 256.001V234.668Z" fill="#4ADE80"/>
<path d="M128 256C128 222.052 141.486 189.495 165.49 165.49C189.495 141.486 222.052 128 256 128L256 149.333C227.71 149.333 200.579 160.571 180.575 180.575C160.571 200.579 149.333 227.71 149.333 256H128Z" fill="#DB2777"/>
</svg>
