<svg width="128" height="128" viewBox="0 0 128 128" fill="none" xmlns="http://www.w3.org/2000/svg">
<rect width="128" height="128" rx="27.9" fill="#1F2937"/>
<path d="M10.666 64.0003C10.666 49.8554 16.285 36.2899 26.287 26.288C36.2889 16.286 49.8544 10.667 63.9993 10.667L63.9993 16.0003C51.2689 16.0003 39.0599 21.0575 30.0582 30.0592C21.0565 39.061 15.9993 51.2699 15.9993 64.0003H10.666Z" fill="#DB2777"/>
<path d="M42.666 64.0003C42.666 58.3424 44.9136 52.9162 48.9144 48.9154C52.9152 44.9146 58.3414 42.667 63.9993 42.667L63.9993 48.0003C59.7559 48.0003 55.6862 49.686 52.6856 52.6866C49.6851 55.6872 47.9993 59.7569 47.9993 64.0003H42.666Z" fill="#4ADE80"/>
<path d="M53.334 63.9997C53.334 61.1707 54.4578 58.4576 56.4582 56.4572C58.4586 54.4568 61.1717 53.333 64.0006 53.333L64.0006 58.6663C62.5862 58.6663 61.2296 59.2282 60.2294 60.2284C59.2292 61.2286 58.6673 62.5852 58.6673 63.9997L53.334 63.9997Z" fill="#DB2777"/>
<path d="M21.334 63.9997C21.334 52.6838 25.8292 41.8313 33.8307 33.8298C41.8323 25.8282 52.6847 21.333 64.0006 21.333L64.0006 26.6663C54.0992 26.6663 44.6033 30.5997 37.602 37.601C30.6006 44.6024 26.6673 54.0983 26.6673 63.9997H21.334Z" fill="#4ADE80"/>
<path d="M63.9993 26.667C71.3832 26.667 78.6012 28.8566 84.7406 32.9588C90.88 37.061 95.6652 42.8917 98.4908 49.7134C101.316 56.5352 102.056 64.0417 100.615 71.2836C99.1748 78.5256 95.6192 85.1778 90.398 90.3989C85.1769 95.6201 78.5247 99.1758 71.2828 100.616C64.0408 102.057 56.5343 101.317 49.7126 98.4918C42.8908 95.6662 37.0601 90.8811 32.9579 84.7417C28.8556 78.6023 26.666 71.3843 26.666 64.0004L32.0009 64.0004C32.001 70.3291 33.8777 76.5156 37.3937 81.7777C40.9097 87.0398 45.9072 91.1411 51.7541 93.563C57.6011 95.9849 64.0349 96.6185 70.242 95.3839C76.449 94.1492 82.1506 91.1016 86.6257 86.6266C91.1007 82.1515 94.1482 76.4499 95.3829 70.2429C96.6176 64.0358 95.9839 57.602 93.562 51.755C91.1401 45.9081 87.0388 40.9106 81.7767 37.3946C76.5146 33.8786 70.328 32.0019 63.9993 32.0019V26.667Z" fill="#DB2777"/>
<path d="M64 48C67.1645 48 70.2579 48.9384 72.8891 50.6965C75.5203 52.4546 77.5711 54.9534 78.7821 57.8771C79.9931 60.8007 80.3099 64.0177 79.6926 67.1214C79.0752 70.2251 77.5514 73.076 75.3137 75.3137C73.0761 77.5513 70.2252 79.0752 67.1215 79.6926C64.0178 80.3099 60.8007 79.9931 57.8771 78.7821C54.9535 77.5711 52.4546 75.5203 50.6965 72.8892C48.9384 70.258 48 67.1645 48 64L53.3344 64C53.3344 66.1095 53.9599 68.1716 55.1319 69.9255C56.3038 71.6795 57.9696 73.0465 59.9185 73.8537C61.8674 74.661 64.0118 74.8722 66.0808 74.4607C68.1497 74.0491 70.0501 73.0333 71.5417 71.5417C73.0333 70.0501 74.0491 68.1497 74.4607 66.0807C74.8722 64.0118 74.661 61.8673 73.8537 59.9184C73.0465 57.9696 71.6794 56.3038 69.9255 55.1319C68.1715 53.9599 66.1095 53.3344 64 53.3344V48Z" fill="#DB2777"/>
<path d="M64 16C73.4935 16 82.7738 18.8151 90.6673 24.0894C98.5609 29.3637 104.713 36.8603 108.346 45.6312C111.979 54.402 112.93 64.0532 111.078 73.3643C109.226 82.6754 104.654 91.2281 97.9412 97.9411C91.2282 104.654 82.6755 109.226 73.3644 111.078C64.0533 112.93 54.4021 111.979 45.6313 108.346C36.8604 104.713 29.3638 98.561 24.0895 90.6674C18.8152 82.7739 16 73.4936 16 64.0001L21.3328 64.0001C21.3328 72.4389 23.8352 80.6881 28.5236 87.7047C33.2119 94.7213 39.8756 100.19 47.672 103.419C55.4685 106.649 64.0474 107.494 72.324 105.847C80.6006 104.201 88.2032 100.137 94.1703 94.1702C100.137 88.2031 104.201 80.6005 105.847 72.3239C107.494 64.0473 106.649 55.4683 103.419 47.6719C100.19 39.8755 94.7212 33.2118 87.7046 28.5235C80.688 23.8352 72.4388 21.3328 64 21.3328V16Z" fill="#4ADE80"/>
<path d="M64.0006 37.333C69.2748 37.333 74.4305 38.897 78.8158 41.8271C83.2011 44.7573 86.6191 48.9221 88.6374 53.7948C90.6558 58.6675 91.1838 64.0292 90.1549 69.202C89.126 74.3749 86.5862 79.1264 82.8568 82.8558C79.1275 86.5852 74.3759 89.125 69.2031 90.1539C64.0303 91.1829 58.6685 90.6548 53.7958 88.6365C48.9231 86.6181 44.7583 83.2002 41.8282 78.8149C38.898 74.4296 37.334 69.2739 37.334 63.9997L42.6673 63.9997C42.6673 68.2191 43.9185 72.3436 46.2627 75.8519C48.6068 79.3601 51.9386 82.0945 55.8368 83.7091C59.7349 85.3238 64.0244 85.7462 68.1626 84.9231C72.3009 84.0999 76.1021 82.0681 79.0856 79.0846C82.0691 76.1011 84.1009 72.2998 84.9241 68.1616C85.7472 64.0233 85.3247 59.7339 83.7101 55.8357C82.0954 51.9376 79.361 48.6058 75.8528 46.2617C72.3446 43.9175 68.22 42.6663 64.0006 42.6663V37.333Z" fill="#4ADE80"/>
<path d="M63.9993 58.667C65.0542 58.667 66.0853 58.9798 66.9624 59.5658C67.8394 60.1519 68.523 60.9848 68.9267 61.9593C69.3304 62.9339 69.436 64.0062 69.2302 65.0408C69.0244 66.0754 68.5165 67.0257 67.7706 67.7716C67.0247 68.5174 66.0744 69.0254 65.0398 69.2312C64.0053 69.437 62.9329 69.3314 61.9584 68.9277C60.9838 68.524 60.1509 67.8404 59.5649 66.9634C58.9788 66.0863 58.666 65.0552 58.666 64.0003L63.9993 64.0003V58.667Z" fill="#4ADE80"/>
<path d="M32 64C32 55.5131 35.3714 47.3738 41.3726 41.3726C47.3737 35.3714 55.513 32 64 32L64 37.3333C56.9275 37.3333 50.1448 40.1429 45.1438 45.1438C40.1428 50.1448 37.3333 56.9276 37.3333 64H32Z" fill="#DB2777"/>
</svg>
